<svg width="100" height="100" viewBox="0 0 100 100" fill="none" xmlns="http://www.w3.org/2000/svg">
  <rect width="100" height="100" rx="20" fill="#16A34A"/>
  <path d="M50 25C36.1929 25 25 36.1929 25 50C25 63.8071 36.1929 75 50 75C63.8071 75 75 63.8071 75 50C75 42.5 72 35.5 67 30M50 25C55 25 60 27 64 30M50 25C45 25 40 27 36 30M50 50L50 85M50 50L30 65M50 50L70 65" stroke="white" stroke-width="8" stroke-linecap="round" stroke-linejoin="round"/>
  <circle cx="50" cy="40" r="6" fill="white"/>
</svg>
